<svg xmlns="http://www.w3.org/2000/svg" xmlns:xlink="http://www.w3.org/1999/xlink" version="1.1" x="0px" y="0px" viewBox="0 0 100 100" enable-background="new 0 0 100 100" xml:space="preserve"><path d="M52.249,61.639h-4.5c-0.553,0-1,0.447-1,1s0.447,1,1,1h4.5c0.553,0,1-0.447,1-1S52.802,61.639,52.249,61.639z   M60.266,43.899c1.254,0,2.27-1.015,2.27-2.269c0-1.252-1.016-2.268-2.27-2.268c-1.252,0-2.268,1.016-2.268,2.268  C57.998,42.885,59.014,43.899,60.266,43.899z M50,13.709c0.354,0,0.641-0.287,0.641-0.64c0-0.361-0.281-0.645-0.641-0.645  c-0.36,0-0.643,0.283-0.643,0.645C49.357,13.422,49.646,13.709,50,13.709z M42.634,58.362c2.2,1.221,4.666,1.831,7.133,1.831  s4.933-0.61,7.133-1.831c0.482-0.268,0.657-0.876,0.389-1.359c-0.269-0.482-0.875-0.659-1.359-0.389  c-3.801,2.109-8.523,2.109-12.324,0c-0.484-0.271-1.091-0.094-1.359,0.389C41.977,57.486,42.151,58.095,42.634,58.362z   M74.491,74.824v-2.406c0-0.553-0.447-1-1-1H61.858l-2.129-0.859v-1.83c5.701-3.738,10.688-9.877,10.688-15.465v-1.402h0.588  c3.521,0,5.162-3.057,5.162-9.623c0-2.137-1.738-3.875-3.875-3.875h-1.875V33.3c3.136-0.122,5.338-0.982,6.527-2.581  c0.967-1.301,1.176-2.997,0.603-4.904c-1.299-4.326-5.122-6.495-8.819-8.593c-2.065-1.172-4.202-2.384-5.852-3.954  C58.679,9.272,56.012,7.012,50,7.012s-8.679,2.261-12.876,6.256c-1.649,1.57-3.786,2.782-5.852,3.954  c-3.697,2.098-7.521,4.267-8.819,8.592c-0.573,1.908-0.364,3.604,0.603,4.905c1.189,1.599,3.393,2.459,6.529,2.581v3.478  c0,0.023-0.002,0.045-0.002,0.068v1.518H27.71c-2.139,0-3.875,1.738-3.875,3.875c0,6.564,1.639,9.623,5.158,9.623h0.59v1.404  c0,5.586,4.984,11.725,10.688,15.463v1.83l-2.131,0.857H26.509c-0.555,0-1,0.447-1,1v2.41c-4.895,3.416-8.115,9.07-8.115,15.479  c0,0.553,0.447,1,1,1h63.213c0.553,0,1-0.447,1-1C82.606,83.896,79.386,78.24,74.491,74.824z M70.417,43.439h0.391  c0.273,0,0.369,0.02,0.369,0.41c0,0.229-0.029,0.592-0.029,0.592c-0.043,0.551,0.369,1.033,0.92,1.076  c0.025,0.002,0.051,0.002,0.078,0.002c0.518,0,0.955-0.398,0.996-0.922c0,0,0.035-0.434,0.035-0.748c0-1.441-0.951-2.41-2.369-2.41  h-0.391v-1.076h1.875c1.033,0,1.875,0.84,1.875,1.875c0,7.623-2.297,7.623-3.162,7.623h-0.588V43.439z M29.583,49.861h-0.59  c-0.863,0-3.158,0-3.158-7.623c0-1.035,0.84-1.875,1.875-1.875h1.871v1.076h-0.389c-1.418,0-2.371,0.969-2.371,2.41  c0,0.314,0.037,0.748,0.037,0.748c0.041,0.523,0.479,0.922,0.996,0.922c0.025,0,0.051,0,0.078-0.002  c0.551-0.043,0.963-0.525,0.92-1.076c0,0-0.031-0.363-0.031-0.592c0-0.396,0.107-0.41,0.371-0.41h0.391V49.861z M70.083,74.105  c0-0.553,0.447-1,1-1s1,0.447,1,1v1.459c0,0.553-0.447,1-1,1s-1-0.447-1-1V74.105z M66.444,74.105c0-0.553,0.447-1,1-1s1,0.447,1,1  v1.459c0,0.553-0.447,1-1,1s-1-0.447-1-1V74.105z M60.771,73.135c0.201,1.598,0.396,6.605-4.232,10.43l-3.439-1.791  c3.803-1.281,6.559-4.848,6.625-9.061L60.771,73.135z M45.168,19.29c0.391-0.391,1.023-0.391,1.414,0  c0.687,0.687,1.532,1.115,2.418,1.302v-2.413h-1.604c-0.553,0-1-0.447-1-1s0.447-1,1-1H49V15.51  c-0.962-0.396-1.643-1.339-1.643-2.44c0-1.458,1.186-2.645,2.643-2.645c1.456,0,2.641,1.187,2.641,2.645  c0,1.102-0.68,2.045-1.641,2.44v0.669h1.604c0.553,0,1,0.447,1,1s-0.447,1-1,1H51v2.413c0.887-0.186,1.731-0.614,2.418-1.301  c0.391-0.391,1.023-0.391,1.414,0s0.391,1.023,0,1.414c-1.326,1.325-3.065,1.99-4.807,1.996c-0.009,0-0.017,0.005-0.025,0.005  s-0.017-0.005-0.025-0.005c-1.741-0.007-3.48-0.672-4.807-1.997C44.777,20.314,44.777,19.681,45.168,19.29z M31.628,32.174  c0.002-0.004,0.004-0.008,0.004-0.012c0-2.481,5.237-5.181,13.221-6.023v-0.011c1.614-0.171,3.331-0.271,5.148-0.271  s3.533,0.101,5.146,0.271v0.012c7.982,0.845,13.223,3.544,13.223,6.023v1.752c-3.219-2.781-10.051-4.619-18.369-4.619  c-8.357,0-15.217,1.857-18.414,4.66l0.045-1.768C31.632,32.184,31.628,32.18,31.628,32.174z M38.737,65.159v-4.772  c0-0.553-0.447-1-1-1s-1,0.447-1,1v2.936c-0.759-0.77-1.459-1.578-2.087-2.409V54.78c0-0.553-0.447-1-1-1s-1,0.447-1,1v2.86  c-0.679-1.467-1.069-2.949-1.069-4.377V37.615c0-0.004,0.004-0.006,0.004-0.01c0-1.141,1.113-2.33,3.088-3.365  c0.888,0.75,2.161,1.404,3.716,1.944c-1.392,0.239-2.918,0.845-4.331,2.162c-0.404,0.376-0.427,1.009-0.05,1.413  c0.196,0.211,0.464,0.318,0.731,0.318c0.244,0,0.489-0.089,0.682-0.269c3.018-2.812,6.766-1.437,6.941-1.369  c0.516,0.198,1.093-0.055,1.293-0.569c0.059-0.149,0.068-0.303,0.055-0.453c1.943,0.277,4.064,0.428,6.289,0.428  c2.226,0,4.347-0.151,6.291-0.428c-0.014,0.148-0.004,0.301,0.054,0.449c0.197,0.514,0.774,0.768,1.291,0.573  c0.157-0.061,3.917-1.449,6.942,1.369c0.192,0.18,0.438,0.269,0.682,0.269c0.268,0,0.535-0.107,0.731-0.318  c0.377-0.404,0.354-1.037-0.05-1.413c-1.414-1.316-2.939-1.922-4.331-2.161c1.555-0.541,2.829-1.195,3.716-1.945  c1.977,1.035,3.092,2.223,3.092,3.365v15.66c0,1.427-0.39,2.907-1.067,4.372V54.78c0-0.553-0.447-1-1-1s-1,0.447-1,1v6.133  c-0.628,0.831-1.328,1.64-2.087,2.409v-2.936c0-0.553-0.447-1-1-1s-1,0.447-1,1v4.772c-0.675,0.563-1.374,1.091-2.088,1.58v-2.311  c0-0.553-0.447-1-1-1s-1,0.447-1,1v3.557c-0.695,0.391-1.394,0.741-2.087,1.039v-2.221c0-0.553-0.447-1-1-1s-1,0.447-1,1v2.875  c0,0.022,0.011,0.04,0.013,0.062c-0.722,0.211-1.425,0.356-2.101,0.431v-1.908c0-0.553-0.447-1-1-1s-1,0.447-1,1v1.908  c-0.676-0.074-1.379-0.22-2.101-0.431c0.002-0.021,0.013-0.04,0.013-0.062v-2.875c0-0.553-0.447-1-1-1s-1,0.447-1,1v2.22  c-0.693-0.298-1.392-0.648-2.087-1.038v-3.557c0-0.553-0.447-1-1-1s-1,0.447-1,1v2.311C40.111,66.249,39.412,65.722,38.737,65.159z   M39.231,73.135l1.047-0.422c0.066,4.213,2.822,7.777,6.625,9.061l-3.439,1.791C38.831,79.74,39.028,74.729,39.231,73.135z   M31.556,74.105c0-0.553,0.447-1,1-1s1,0.447,1,1v1.459c0,0.553-0.447,1-1,1s-1-0.447-1-1V74.105z M27.917,74.105  c0-0.553,0.447-1,1-1s1,0.447,1,1v1.459c0,0.553-0.447,1-1,1s-1-0.447-1-1V74.105z M47.384,89.305h-17.76  c0.166-1.857,0.789-3.639,1.838-5.197c0.307-0.459,0.186-1.08-0.273-1.389c-0.457-0.311-1.078-0.186-1.387,0.271  c-1.271,1.893-2.02,4.057-2.189,6.314h-8.188c0.283-4.811,2.611-9.057,6.1-11.955c0.037,0.52,0.457,0.932,0.986,0.932h11.168  c0.66,2.357,2.09,5.02,5.072,7.268c0.178,0.133,0.389,0.201,0.602,0.201c0.158,0,0.316-0.037,0.463-0.113l3.248-1.691l1.324,1.264  L47.384,89.305z M42.271,72.559v-2.637c2.668,1.443,5.381,2.313,7.729,2.313c2.35,0,5.063-0.869,7.73-2.313v2.637  c0,4.262-3.467,7.729-7.73,7.729C45.737,80.287,42.271,76.82,42.271,72.559z M72.39,89.305c-0.172-2.26-0.92-4.424-2.191-6.314  c-0.309-0.457-0.93-0.578-1.389-0.271c-0.457,0.311-0.578,0.932-0.271,1.391c1.051,1.559,1.674,3.338,1.84,5.197H52.614  l-1.002-4.098l1.322-1.266l3.252,1.693c0.146,0.076,0.305,0.113,0.463,0.113c0.213,0,0.424-0.068,0.602-0.201  c2.982-2.246,4.412-4.908,5.072-7.268h11.168c0.535,0,0.963-0.422,0.99-0.951c3.492,2.898,5.813,7.16,6.096,11.975H72.39z   M42,41.631c0-1.252-1.016-2.268-2.268-2.268s-2.268,1.016-2.268,2.268c0,1.254,1.016,2.269,2.268,2.269S42,42.885,42,41.631z   M44.946,53.631c0.256,0,0.514-0.098,0.709-0.293c0.391-0.391,0.391-1.023-0.002-1.414c-0.184-0.184-0.283-0.426-0.283-0.684  s0.102-0.502,0.285-0.686c0.391-0.391,0.391-1.023-0.002-1.414c-0.389-0.391-1.023-0.391-1.414,0.002  c-0.561,0.561-0.869,1.307-0.869,2.098c0,0.793,0.311,1.537,0.869,2.1C44.435,53.533,44.69,53.631,44.946,53.631z M49.999,53.629  c1.256,0,2.51-0.477,3.465-1.432c0.391-0.391,0.391-1.023,0-1.414s-1.023-0.391-1.414,0c-1.131,1.129-2.971,1.129-4.1,0  c-0.391-0.391-1.023-0.391-1.414,0s-0.391,1.023,0,1.414C47.491,53.152,48.745,53.629,49.999,53.629z M51.745,48.973  c0.553,0,1-0.449,1-1v-7.139c0-0.553-0.447-1-1-1s-1,0.447-1,1v7.139C50.745,48.523,51.192,48.973,51.745,48.973z M54.345,53.338  c0.193,0.195,0.451,0.293,0.707,0.293s0.512-0.098,0.707-0.291c0.561-0.563,0.871-1.307,0.871-2.1c0-0.791-0.311-1.537-0.869-2.098  c-0.393-0.393-1.025-0.393-1.416-0.002s-0.391,1.023,0,1.416c0.184,0.184,0.285,0.426,0.285,0.686c0,0.258-0.102,0.5-0.285,0.682  C53.954,52.314,53.954,52.947,54.345,53.338z"></path></svg>
